<svg width="20" height="21" viewBox="0 0 20 21" fill="none" xmlns="http://www.w3.org/2000/svg">
<path d="M18.3333 7.60001V3.81667C18.3333 2.64167 17.8 2.16667 16.475 2.16667H13.1083C11.7833 2.16667 11.25 2.64167 11.25 3.81667V7.59167C11.25 8.77501 11.7833 9.24167 13.1083 9.24167H16.475C17.8 9.25 18.3333 8.77501 18.3333 7.60001Z" stroke="#858585" stroke-width="1.5" stroke-linecap="round" stroke-linejoin="round"/>
<path d="M18.3333 16.975V13.6083C18.3333 12.2833 17.8 11.75 16.475 11.75H13.1083C11.7833 11.75 11.25 12.2833 11.25 13.6083V16.975C11.25 18.3 11.7833 18.8333 13.1083 18.8333H16.475C17.8 18.8333 18.3333 18.3 18.3333 16.975Z" stroke="#858585" stroke-width="1.5" stroke-linecap="round" stroke-linejoin="round"/>
<path d="M8.74996 7.60001V3.81667C8.74996 2.64167 8.21663 2.16667 6.89163 2.16667H3.52496C2.19996 2.16667 1.66663 2.64167 1.66663 3.81667V7.59167C1.66663 8.77501 2.19996 9.24167 3.52496 9.24167H6.89163C8.21663 9.25 8.74996 8.77501 8.74996 7.60001Z" stroke="#858585" stroke-width="1.5" stroke-linecap="round" stroke-linejoin="round"/>
<path d="M8.74996 16.975V13.6083C8.74996 12.2833 8.21663 11.75 6.89163 11.75H3.52496C2.19996 11.75 1.66663 12.2833 1.66663 13.6083V16.975C1.66663 18.3 2.19996 18.8333 3.52496 18.8333H6.89163C8.21663 18.8333 8.74996 18.3 8.74996 16.975Z" stroke="#858585" stroke-width="1.5" stroke-linecap="round" stroke-linejoin="round"/>
</svg>
